<?xml version='1.0' encoding='utf-8'?>
<svg xmlns:xlink="http://www.w3.org/1999/xlink" xmlns="http://www.w3.org/2000/svg" viewBox="0 0 3626.47 3933.35"> <defs> <style> .cls-1, .cls-2 { stroke: #9f8e3e; } .cls-1, .cls-10, .cls-11, .cls-12, .cls-13, .cls-14, .cls-15, .cls-16, .cls-17, .cls-18, .cls-19, .cls-2, .cls-3, .cls-4, .cls-5, .cls-6, .cls-7, .cls-8, .cls-9 { stroke-linecap: round; stroke-linejoin: round; stroke-width: 28.31px; } .cls-1 { fill: url(#Gold); } .cls-2 { opacity: 0.58; fill: url(#New_Gradient_Swatch_2); } .cls-19, .cls-3, .cls-4 { stroke: #c6a645; } .cls-3 { fill: url(#linear-gradient); } .cls-4 { fill: url(#linear-gradient-2); } .cls-10, .cls-11, .cls-12, .cls-13, .cls-14, .cls-15, .cls-16, .cls-17, .cls-18, .cls-5, .cls-6, .cls-7, .cls-8, .cls-9 { stroke: #519547; } .cls-5 { fill: url(#Emerald); } .cls-6 { fill: url(#Emerald-2); } .cls-7 { fill: url(#Emerald-3); } .cls-8 { fill: url(#Emerald-4); } .cls-9 { fill: url(#Emerald-5); } .cls-10 { fill: url(#Emerald-6); } .cls-11 { fill: url(#Emerald-7); } .cls-12 { fill: url(#Emerald-8); } .cls-13 { fill: url(#Emerald-9); } .cls-14 { fill: url(#Emerald-10); } .cls-15 { fill: url(#Emerald-11); } .cls-16 { fill: url(#Emerald-12); } .cls-17 { fill: url(#Emerald-13); } .cls-18 { fill: url(#Emerald-14); } .cls-19 { fill: url(#linear-gradient-3); } </style> <linearGradient id="Gold" x1="4184.97" y1="3145.19" x2="270.12" y2="884.95" gradientUnits="userSpaceOnUse"> <stop offset="0.01" stop-color="#fbc926"/> <stop offset="0.25" stop-color="#fffbcc"/> <stop offset="0.3" stop-color="#f8f0bb"/> <stop offset="0.41" stop-color="#e7d28e"/> <stop offset="0.55" stop-color="#cca246"/> <stop offset="0.6" stop-color="#c3922e"/> <stop offset="0.87" stop-color="#eed688"/> <stop offset="1" stop-color="#fffbcc"/> </linearGradient> <radialGradient id="New_Gradient_Swatch_2" data-name="New Gradient Swatch 2" cx="1802.47" cy="1880.93" r="1866.4" gradientTransform="translate(0 -306.82) scale(1 1.16)" gradientUnits="userSpaceOnUse"> <stop offset="0.69" stop-color="#c89a39"/> <stop offset="0.7" stop-color="#d6ac44"/> <stop offset="0.71" stop-color="#e4bd4e"/> <stop offset="0.72" stop-color="#edc855"/> <stop offset="0.74" stop-color="#f3cf59"/> <stop offset="0.8" stop-color="#f4d15a"/> <stop offset="0.82" stop-color="#fcda60"/> <stop offset="0.86" stop-color="#fad85f"/> <stop offset="0.88" stop-color="#f5d15b"/> <stop offset="0.88" stop-color="#f2ce59"/> <stop offset="0.95" stop-color="#c99b3a"/> <stop offset="0.96" stop-color="#c89a39"/> </radialGradient> <linearGradient id="linear-gradient" x1="181.81" y1="2025.44" x2="3476.59" y2="2025.44" gradientUnits="userSpaceOnUse"> <stop offset="0" stop-color="#fffbcc"/> <stop offset="0.13" stop-color="#eed688"/> <stop offset="0.4" stop-color="#c3922e"/> <stop offset="0.48" stop-color="#cca246"/> <stop offset="0.73" stop-color="#e7d28e"/> <stop offset="0.91" stop-color="#f8f0bb"/> <stop offset="1" stop-color="#fffbcc"/> </linearGradient> <linearGradient id="linear-gradient-2" x1="662.91" y1="97.31" x2="16.43" y2="470.56" gradientTransform="translate(468.85 68.94) rotate(-7.66)" xlink:href="#linear-gradient"/> <linearGradient id="Emerald" x1="672.81" y1="983.46" x2="578.68" y2="1037.81" gradientUnits="userSpaceOnUse"> <stop offset="0" stop-color="#008145"/> <stop offset="0.09" stop-color="#048346"/> <stop offset="0.18" stop-color="#108a4b"/> <stop offset="0.27" stop-color="#249552"/> <stop offset="0.36" stop-color="#40a45d"/> <stop offset="0.44" stop-color="#63b86a"/> <stop offset="0.49" stop-color="#78c372"/> <stop offset="0.53" stop-color="#64b86b"/> <stop offset="0.63" stop-color="#40a45d"/> <stop offset="0.72" stop-color="#249553"/> <stop offset="0.81" stop-color="#108a4b"/> <stop offset="0.91" stop-color="#048347"/> <stop offset="1" stop-color="#008145"/> </linearGradient> <linearGradient id="Emerald-2" data-name="Emerald" x1="486.33" y1="1422.81" x2="361.32" y2="1494.98" xlink:href="#Emerald"/> <linearGradient id="Emerald-3" data-name="Emerald" x1="381.23" y1="1922.12" x2="234.5" y2="2006.83" xlink:href="#Emerald"/> <linearGradient id="Emerald-4" data-name="Emerald" x1="429.07" y1="2400.98" x2="260.26" y2="2498.44" xlink:href="#Emerald"/> <linearGradient id="Emerald-5" data-name="Emerald" x1="1491.33" y1="3553.37" x2="1322.51" y2="3650.84" xlink:href="#Emerald"/> <linearGradient id="Emerald-6" data-name="Emerald" x1="992.6" y1="3289.15" x2="823.79" y2="3386.61" xlink:href="#Emerald"/> <linearGradient id="Emerald-7" data-name="Emerald" x1="629.39" y1="2893.27" x2="460.59" y2="2990.72" xlink:href="#Emerald"/> <linearGradient id="Emerald-8" data-name="Emerald" x1="3065.1" y1="983.46" x2="2970.96" y2="1037.81" xlink:href="#Emerald"/> <linearGradient id="Emerald-9" data-name="Emerald" x1="3289.21" y1="1422.81" x2="3164.21" y2="1494.98" xlink:href="#Emerald"/> <linearGradient id="Emerald-10" data-name="Emerald" x1="3424.81" y1="1906.88" x2="3278.08" y2="1991.59" xlink:href="#Emerald"/> <linearGradient id="Emerald-11" data-name="Emerald" x1="3398.25" y1="2404.36" x2="3229.43" y2="2501.82" xlink:href="#Emerald"/> <linearGradient id="Emerald-12" data-name="Emerald" x1="2330.05" y1="3548.3" x2="2143.67" y2="3655.91" xlink:href="#Emerald"/> <linearGradient id="Emerald-13" data-name="Emerald" x1="2828.79" y1="3284.07" x2="2642.36" y2="3391.7" xlink:href="#Emerald"/> <linearGradient id="Emerald-14" data-name="Emerald" x1="3188.57" y1="2906.8" x2="3019.83" y2="3004.23" xlink:href="#Emerald"/> <linearGradient id="linear-gradient-3" x1="-1456.04" y1="271.89" x2="-1972.12" y2="-256.15" gradientTransform="matrix(-0.99, -0.13, -0.13, 0.99, 1106.39, 68.94)" xlink:href="#linear-gradient"/> </defs> <title>Lucky Horseshoe</title> <g id="Layer_2" data-name="Layer 2"> <g id="Lucky_Horseshoe" data-name="Lucky Horseshoe"> <g id="Artwork_38" data-name="Artwork 38"> <g> <path class="cls-1" d="M2514.61,183.32c29.87,154,63.23,308.56,119.35,455.48,57.65,151,149.51,284.69,221.22,428.94,124.19,249.81,218.57,518.94,247,797.69,40.93,400.89-73.93,812.56-382,1085.26-423.93,375.29-1036.44,482.45-1528.53,180C802.2,2891.36,580.85,2481.19,573.91,2025.81c-4.71-309.39,82.33-614.15,215-891.52,68.55-143.29,167.51-273.11,223-421.93,63.7-170.89,102.37-351.64,143-529-97.12,0-194.62-44.45-287-72-52.29-15.59-109.1-41.1-163.15-48.66-41.07-5.75-37.19,13.63-59,55.9-21.3,41.35-41.44,83.51-58.32,126.87C565.1,302.9,562.6,352,559.2,413.32,552.93,526.21,534.42,638.41,502.85,747c-40.32,138.71-105.15,262.41-175.77,387.28C115.17,1509-32.08,1940,27.48,2375.15c57.29,418.5,302,780.79,607.48,1062.33,570.37,525.71,1490.74,647.44,2158.2,234.07,360.44-223.23,633.33-608.6,752.42-1012.86,130.66-443.52,61.19-913.36-136.21-1326-83.77-175.14-213.93-329-279.72-512.06-33.72-93.83-51-193-52.36-292.64-.83-60.46,9.14-118.16,14.12-178,4.27-51.13-18.4-99.39-36.54-147.92-11.41-30.54-34.41-121.55-68.45-139.37-15.79-8.26-11.69-3.72-33.05,0C2836.65,83,2718.18,134.37,2604.77,169c-33.52,10.23-54.81,14.36-90.16,14.36Z"/> <path class="cls-2" d="M2514.61,183.32c29.87,154,63.23,308.56,119.35,455.48,57.65,151,149.51,284.69,221.22,428.94,124.19,249.81,218.57,518.94,247,797.69,40.93,400.89-73.93,812.56-382,1085.26-423.93,375.29-1036.44,482.45-1528.53,180C802.2,2891.36,580.85,2481.19,573.91,2025.81c-4.71-309.39,82.33-614.15,215-891.52,68.55-143.29,167.51-273.11,223-421.93,63.7-170.89,102.37-351.64,143-529-97.12,0-194.62-44.45-287-72-52.29-15.59-109.1-41.1-163.15-48.66-41.07-5.75-37.19,13.63-59,55.9-21.3,41.35-41.44,83.51-58.32,126.87C565.1,302.9,562.6,352,559.2,413.32,552.93,526.21,534.42,638.41,502.85,747c-40.32,138.71-105.15,262.41-175.77,387.28C115.17,1509-32.08,1940,27.48,2375.15c57.29,418.5,302,780.79,607.48,1062.33,570.37,525.71,1490.74,647.44,2158.2,234.07,360.44-223.23,633.33-608.6,752.42-1012.86,130.66-443.52,61.19-913.36-136.21-1326-83.77-175.14-213.93-329-279.72-512.06-33.72-93.83-51-193-52.36-292.64-.83-60.46,9.14-118.16,14.12-178,4.27-51.13-18.4-99.39-36.54-147.92-11.41-30.54-34.41-121.55-68.45-139.37-15.79-8.26-11.69-3.72-33.05,0C2836.65,83,2718.18,134.37,2604.77,169c-33.52,10.23-54.81,14.36-90.16,14.36Z"/> <path class="cls-3" d="M2132.74,3515.61c284.37-225.4,888.71-231.71,1086-1210.8,116-575.81-220-1132.93-501.59-1689.79-128.82-254.75-57.55-235.72,0-264.28,87.36-43.32,201.81-151.52,264.88,214.9C3081.17,1141.85,3581.17,1453,3456.86,2360c-93.88,685-602.41,1192.65-1163.27,1368.66C2064.17,3816.75,2065.31,3544.59,2132.74,3515.61Zm-607.09,3c-284.37-225.37-888.71-231.68-1086-1210.77C323.68,1732,659.69,1174.89,941.28,618c128.8-254.73,57.55-235.73,0-264.26-87.37-43.35-201.8-151.52-264.88,214.87C577.21,1144.84,77.23,1456,201.54,2363c93.88,685,602.39,1192.64,1163.26,1368.66C1594.21,3819.75,1593.09,3547.58,1525.65,3518.6Z"/> <path class="cls-4" d="M1039.44,595.08c36.22,6.81,71.07-17.58,78.38-53l78-354.21a67.19,67.19,0,0,0-53.69-78.5l-494.78-94A67.23,67.23,0,0,0,568.87,69L491,422.59a67.21,67.21,0,0,0,53.69,78.5Z"/> <g> <g> <path class="cls-5" d="M625.75,1065a54.34,54.34,0,1,0-54.33-54.34A54.3,54.3,0,0,0,625.75,1065Z"/> <path class="cls-6" d="M399.27,1526.75A72.16,72.16,0,1,0,356,1434.34,72.14,72.14,0,0,0,399.27,1526.75Z"/> <path class="cls-7" d="M248,2024.36a84.69,84.69,0,1,0,0-119.77A84.64,84.64,0,0,0,248,2024.36Z"/> <path class="cls-8" d="M275.76,2518.61a97.45,97.45,0,1,0,0-137.81A97.4,97.4,0,0,0,275.76,2518.61Z"/> <path class="cls-9" d="M1358.19,3686.48a97.43,97.43,0,1,0-35.64-133.09A97.38,97.38,0,0,0,1358.19,3686.48Z"/> <path class="cls-10" d="M859.48,3422.27a97.44,97.44,0,1,0-35.67-133.11A97.43,97.43,0,0,0,859.48,3422.27Z"/> <path class="cls-11" d="M496.27,3026.37a97.43,97.43,0,1,0-35.66-133.09A97.4,97.4,0,0,0,496.27,3026.37Z"/> </g> <g> <path class="cls-12" d="M3018,1065a54.34,54.34,0,1,1,54.33-54.34A54.31,54.31,0,0,1,3018,1065Z"/> <path class="cls-13" d="M3251.26,1526.75a72.16,72.16,0,1,1,43.3-92.41A72.13,72.13,0,0,1,3251.26,1526.75Z"/> <path class="cls-14" d="M3411.33,2009.12a84.69,84.69,0,1,1,0-119.77A84.64,84.64,0,0,1,3411.33,2009.12Z"/> <path class="cls-15" d="M3382.73,2522a97.44,97.44,0,1,1,0-137.8A97.4,97.4,0,0,1,3382.73,2522Z"/> <path class="cls-16" d="M2273.81,3703.14a107.58,107.58,0,1,1,64.09-138A107.53,107.53,0,0,1,2273.81,3703.14Z"/> <path class="cls-17" d="M2811.67,3414a107.6,107.6,0,1,1,0-152.17A107.56,107.56,0,0,1,2811.67,3414Z"/> <path class="cls-18" d="M3152.91,3039.89a97.43,97.43,0,1,1,35.66-133.09A97.4,97.4,0,0,1,3152.91,3039.89Z"/> </g> </g> <path class="cls-19" d="M2608,595.08c-36.23,6.81-71.07-17.58-78.39-53l-78-354.21a67.19,67.19,0,0,1,53.69-78.5l494.78-94A67.22,67.22,0,0,1,3078.56,69l77.9,353.56a67.21,67.21,0,0,1-53.69,78.5Z"/> </g> </g> </g> </g> </svg>