<?xml version="1.0" encoding="UTF-8"?>
<svg width="268.69" height="684.3" viewBox="0 0 268.688 684.3" xmlns="http://www.w3.org/2000/svg">
 <path d="m260.48 251.26s-30.045 45.525-88.345 57.489c1.091-1.05 2.217-2.039 3.383-2.953 0-0.084 2.287-2.797 5.705-6.804 64.729-7.005 86.978-92.579 86.978-92.579s-19.511 63.702-82.799 87.691c3.066-3.58 6.528-7.61 9.904-11.535 63.404-18.104 71.384-108.31 71.384-108.31s-8.627 65.848-65.578 101.56c5.812-6.748 10.311-11.961 10.311-11.961 1.37-1.901 2.672-3.854 3.905-5.854 46.692-34.922 40.768-113.54 40.768-113.54s1.773 52.413-32.452 96.346c0.956-2.605 1.803-5.263 2.535-7.968 35.917-43.806 18.33-116.55 18.33-116.55s10.064 50.699-15.397 100.18c0.104-1.161 0.203-2.324 0.267-3.497 31.333-50.316 0.974-122.3 0.974-122.3s19.674 52.637-1.164 109.14c-0.11-1.34-0.246-2.672-0.41-3.996 24.526-58.231-13.159-135.67-13.159-135.67s25.601 61.38 11.003 124.15c-0.928-3.691-2.071-7.297-3.412-10.804 11.405-53.721-15.524-122.47-15.524-122.47s18.815 56.165 10.686 111.82c-1.615-3.044-3.385-5.994-5.307-8.833 3.798-50.433-17.895-113.26-17.895-113.26s15.906 54.065 12.147 105.62c-1.996-2.396-4.107-4.694-6.324-6.885-0.297-45.987-19.337-107.4-19.337-107.4s14.748 55.308 13.663 102.23c-2.25-1.896-4.589-3.689-7.009-5.375-1.853-45.027-18.169-109.19-18.169-109.19s12.794 59.333 12.723 105.66c-2.396-1.438-4.857-2.775-7.383-4.004-2.895-43.321-17.854-104.99-17.854-104.99s11.982 57.818 12.69 102.66c-2.376-0.987-4.801-1.879-7.269-2.676-2.691-46.661-17.937-111.32-17.937-111.32s12.367 60.909 12.72 109.79c-2.366-0.618-4.767-1.149-7.2-1.587-2.378-47.505-18.034-113.21-18.034-113.21s12.804 62.16 12.723 112.41c-3.868-0.474-7.806-0.723-11.802-0.723-4.019 0-7.978 0.25-11.867 0.73 1.909-38.286 10.432-78.748 10.432-78.748s-10.725 42.749-14.975 79.42c-2.698 0.465-5.358 1.041-7.974 1.726 0.35-48.894 12.72-100.81 12.72-100.81s-15.251 55.667-17.938 102.34c-2.368 0.767-4.696 1.623-6.979 2.564 0.722-44.797 12.689-113.57 12.689-113.57s-14.934 72.606-17.847 115.88c-2.428 1.174-4.795 2.452-7.104 3.818-0.016-46.17 12.722-116.36 12.722-116.36s-16.233 74.957-18.156 119.83c-2.326 1.597-4.581 3.29-6.752 5.08-0.944-46.587 12.68-117.58 12.68-117.58s-17.835 76.962-18.328 122.62c-2.143 2.069-4.19 4.236-6.134 6.496-3.438-50.979 12.233-115.45 12.233-115.45s-21.281 72.933-17.986 122.84c-1.87 2.658-3.606 5.416-5.204 8.262-7.404-54.719 10.961-123.84 10.961-123.84s-26.168 81.158-15.979 134.19c-1.306 3.168-2.449 6.42-3.415 9.748-12.954-61.177 11.745-108.82 11.745-108.82s-36.396 63.193-14.377 120.64c-0.177 1.131-0.333 2.269-0.471 3.413-18.729-55.11 0.115-105.53 0.115-105.53s-29.187 69.206-0.783 119.34c0.02 0.866 0.054 1.729 0.097 2.588-23.026-48.223-13.471-96.316-13.471-96.316s-16.761 69.345 15.878 113.4c0.559 2.387 1.206 4.74 1.939 7.055-31.069-43.034-29.404-92.28-29.404-92.28s-5.669 75.107 37.673 111.11c1.647 2.854 3.436 5.617 5.355 8.279l8.088 9.446c-53.481-36.202-61.711-99.05-61.711-99.05s7.778 87.98 69.038 107.61l9.582 11.191c-61.168-24.74-80.13-86.644-80.13-86.644s21.797 83.813 84.998 92.329l6.04 7.054c0.996 0.78 1.96 1.619 2.901 2.5-56.904-12.616-86.218-57.036-86.218-57.036s36.217 60.565 92.141 63.612c2.505 3.257 4.77 6.85 6.815 10.631-65.264-8.184-98.956-59.243-98.956-59.243s40.15 67.146 101.18 63.596c1.303 2.702 2.502 5.467 3.608 8.249-69.087-5.749-104.79-59.845-104.79-59.845s42.299 70.739 106.06 63.162c2.296 6.21 4.132 12.402 5.578 18.046-72.918-3.061-110.64-60.208-110.64-60.208s44.575 74.543 111.18 62.387c0.889 3.626 1.612 6.982 2.19 9.914-74.712-1.718-113.37-60.301-113.37-60.301s45.691 76.424 113.68 61.9c1.164 6.137 1.634 10.048 1.634 10.048v0.382c-75.984-0.733-115.32-60.33-115.32-60.33s46.426 77.637 115.32 61.524v16.806c-75.984-0.733-115.32-60.33-115.32-60.33s46.426 77.637 115.32 61.524v7.806c-75.984-0.733-115.32-60.33-115.32-60.33s46.426 77.637 115.32 61.524v13.806c-75.984-0.733-115.32-60.33-115.32-60.33s46.426 77.637 115.32 61.524v9.806c-75.984-0.733-115.32-60.33-115.32-60.33s46.426 77.637 115.32 61.524v14.806c-75.984-0.733-115.32-60.33-115.32-60.33s46.426 77.637 115.32 61.524v10.806c-75.984-0.733-115.32-60.33-115.32-60.33s46.426 77.637 115.32 61.524v8.806c-75.984-0.733-115.32-60.33-115.32-60.33s46.426 77.637 115.32 61.524v208.01h18v-190.93c68.649 15.76 113.96-61.607 113.96-61.607s-38.253 59.407-113.96 60.324v-10.717c68.649 15.76 113.96-61.607 113.96-61.607s-38.253 59.407-113.96 60.324v-9.717c68.649 15.76 113.96-61.607 113.96-61.607s-38.253 59.407-113.96 60.324v-19.717c68.649 15.76 113.96-61.607 113.96-61.607s-38.253 59.407-113.96 60.324v-12.717c68.649 15.76 113.96-61.607 113.96-61.607s-38.253 59.407-113.96 60.324v-8.717c68.649 15.76 113.96-61.607 113.96-61.607s-38.253 59.407-113.96 60.324v-10.717c68.649 15.76 113.96-61.607 113.96-61.607s-38.253 59.407-113.96 60.324v-14.717c68.649 15.76 113.96-61.607 113.96-61.607s-38.253 59.407-113.96 60.324v-12.376s0.418-3.475 1.439-9.01c67.845 14.366 112.52-61.938 112.52-61.938s-37.662 58.499-112.21 60.298c0.557-2.892 1.261-6.239 2.137-9.889 66.469 12.051 110.08-62.409 110.08-62.409s-36.762 57.091-109.53 60.204c0.968-3.853 2.119-7.98 3.478-12.211 62.448 7.708 106.69-62.371 107.06-62.992-0.036 0.054-38.291 54.486-106.04 59.909 2.107-6.162 4.656-12.445 7.722-18.322 61.105 3.657 101.31-63.586 101.31-63.586s-33.673 51.032-98.902 59.237c1.565-2.653 3.247-5.188 5.056-7.546 56.891-1.889 93.845-63.693 93.845-63.693z" fill="#00a651" stroke="#00a651"/>
 <path d="m224.02 207.3a90.5 90.5 0 1 0 -181 0 90.5 90.5 0 1 0 181 0" fill="#fff200" stroke="#8cc63f" stroke-width="3"/>
 <path d="m203.15 205.42a69.625 69.625 0 1 0 -139.25 0 69.625 69.625 0 1 0 139.25 0" fill="#a97c50" stroke="#000" stroke-width="3"/>
 <path d="m198.15 205.42a64.625 64.625 0 1 0 -129.25 0 64.625 64.625 0 1 0 129.25 0" fill="#fbb040" stroke="#c49a6b" stroke-width="2"/>
 <path d="m181.54 223.61c-0.979 7.999-2.76 19.027-9.68 24.758-8.938 7.401-24.544 8.432-38.175 8.432-16.006 0-31.718-0.745-40.638-10.35-4.558-4.908-6.71-16.331-7.528-22.459-2.418-18.12 19.006-32.979 47.854-33.191s50.412 14.479 48.167 32.81z" fill="#1b75bc" stroke="#262261" stroke-width="3"/>
 <path d="m174.951,223.867c-.581,4.612-2.651,8.963-5.828,12.793-1.06,1.277-2.241,2.496-3.533,3.639-9.636,13.787-21.636-1.688-33.636.692-9,1.19-17,8.333-26.105,2.641-1.503-.982-2.913-2.054-4.215-3.192-5.208-4.554-8.685-10.173-9.52-16.251-2.086-15.197 16.397-27.66 41.284-27.838s43.491,12.141 41.553,27.516z" fill="#00aeef"/>
 <path d="m135.02 682.8h-3v-312.27l1.4-77.822 1.6 77.844v312.25z" fill="#006838"/>
 <path d="m133.35 240.8 2.667 129.73v313.27h-5v-313.27l2.333-129.73m0.134 103.8-0.467 25.97v311.24h1v-311.27l-0.533-25.934z"/>
</svg>
